<?xml version="1.0" encoding="UTF-8" standalone="no"?>
<!-- Created with Inkscape (http://www.inkscape.org/) -->

<svg
   version="1.1"
   id="svg2"
   width="2933.3333"
   height="2933.3333"
   viewBox="0 0 2933.3333 2933.3333"
   sodipodi:docname="fe53700e-d41b-4f4b-b596-c1e83c1e4a22.eps"
   xmlns:inkscape="http://www.inkscape.org/namespaces/inkscape"
   xmlns:sodipodi="http://sodipodi.sourceforge.net/DTD/sodipodi-0.dtd"
   xmlns="http://www.w3.org/2000/svg"
   xmlns:svg="http://www.w3.org/2000/svg">
  <defs
     id="defs6" />
  <sodipodi:namedview
     id="namedview4"
     pagecolor="#ffffff"
     bordercolor="#000000"
     borderopacity="0.25"
     inkscape:showpageshadow="2"
     inkscape:pageopacity="0.0"
     inkscape:pagecheckerboard="0"
     inkscape:deskcolor="#d1d1d1" />
  <g
     id="g8"
     inkscape:groupmode="layer"
     inkscape:label="ink_ext_XXXXXX"
     transform="matrix(1.3333333,0,0,-1.3333333,0,2933.3333)">
    <g
       id="g10"
       transform="scale(0.1)">
      <path
         d="M 22000,0 H 0 V 22000 H 22000 V 0"
         style="fill:#ffffff;fill-opacity:1;fill-rule:nonzero;stroke:none"
         id="path12" />
      <path
         d="m 6875.55,6759.2 c 0.76,-0.2 1.47,-0.3 2.15,-0.5 0.07,0.1 0.17,0.1 0.22,0.2 -0.49,0.1 -1.07,0.2 -1.64,0.3 -0.23,0 -0.45,0 -0.73,0"
         style="fill:#141415;fill-opacity:1;fill-rule:nonzero;stroke:none"
         id="path14" />
      <path
         d="m 6876.38,6759.2 c 0.55,-0.1 1.12,-0.2 1.61,-0.3 0.28,0.3 -0.22,0.5 -1.61,0.3"
         style="fill:#141415;fill-opacity:1;fill-rule:nonzero;stroke:none"
         id="path16" />
      <path
         d="m 6873.16,6759.6 c 0.62,-0.1 1.2,-0.2 1.8,-0.3 0.19,0 0.34,0 0.55,0.1 -0.26,0 -0.42,0.1 -0.69,0.1 0.27,0 0.46,-0.1 0.72,-0.1 1.51,0.3 3.33,0.7 5.19,1.2 -2.26,0.1 -4.93,-0.1 -7.57,-1"
         style="fill:#141415;fill-opacity:1;fill-rule:nonzero;stroke:none"
         id="path18" />
      <path
         d="m 6872.01,6758.6 c 1.53,0.3 2.63,0.4 3.54,0.6 -0.19,0 -0.4,0 -0.59,0.1 -2.29,-0.5 -3.73,-0.9 -2.95,-0.7"
         style="fill:#141415;fill-opacity:1;fill-rule:nonzero;stroke:none"
         id="path20" />
      <path
         d="m 6876.38,6759.2 c -0.28,0.1 -0.54,0.1 -0.84,0.2 -0.01,0 -0.02,0 -0.03,0 0.29,-0.1 0.5,-0.1 0.77,-0.2 0.03,0 0.07,0 0.1,0"
         style="fill:#141415;fill-opacity:1;fill-rule:nonzero;stroke:none"
         id="path22" />
      <path
         d="m 12327,5510 c -6.7,0.9 -17.1,3 -6.3,0.5 2.3,-0.2 4.5,-0.4 6.3,-0.5 v 0"
         style="fill:#141415;fill-opacity:1;fill-rule:nonzero;stroke:none"
         id="path24" />
      <path
         d="m 11910,6495.7 c -2.9,-1.4 -5.8,-2.8 -8.6,-4.3 3.4,0.9 6.9,1.9 10.6,3.1 -0.7,0.4 -1.4,0.8 -2,1.2"
         style="fill:#141415;fill-opacity:1;fill-rule:nonzero;stroke:none"
         id="path26" />
      <path
         d="m 15260.8,5404.2 c 11.1,238 72.8,470.8 148.8,695.5 68.2,201.7 138.7,408.1 238.4,596.9 81,153.5 188.1,311.1 346.2,393.2 11.8,6.1 34.9,11.9 54.8,18.3 14.1,-4.8 28.3,-9.7 41.8,-17 79.3,-42.5 143.3,-108.9 189.3,-185.7 230.9,-385.6 -33.3,-840.2 -256.1,-1163 -197.7,-286.6 -440.9,-545.4 -726.2,-746.1 -31.9,132.7 -43.4,271.5 -37,407.9 z m 753.1,1717.3 c -3.4,-3.3 -13.5,6.2 0,0 z m -3137.1,-878.1 c 13.4,69.8 27.6,147.3 82.4,196.9 105.6,-84.5 71.8,-230 30.1,-349.2 -31.1,-89 -74.4,-174.3 -129.1,-251 -14.1,134.6 -8.9,271.1 16.6,403.3 z m -548.3,-734.6 c 2.1,-0.4 2.8,-0.6 0,0 z m -613.7,702.4 c 13.3,96 56.7,185.9 133.5,246.6 17.1,13.5 34.8,24.2 53.1,33.6 -72,-18 -76.1,46.4 -36.1,26.6 15.5,-7.6 30.3,-14.1 44.7,-22.3 14.9,7.3 30.2,14 46,20.9 2.8,1.2 5.2,2.2 7.4,3.2 -19.6,-12.3 -36.7,-20.4 -51.4,-25.3 5.8,-3.3 11.5,-7 17.2,-11.2 159.5,-117.1 155.7,-349.1 82.2,-512.7 -36.2,-80.5 -85.6,-156 -142,-226.6 -113.2,125.8 -179,290.7 -154.6,467.2 z M 8670.34,5276.8 c 1.54,21.6 8.3,36.4 15.46,51.9 31.8,68.9 87.25,121.2 149.59,162.7 48.68,32.3 101.98,60.1 157.91,77.6 8.21,2.6 16.34,4.7 24.76,6.7 0.21,0.1 27.62,4.7 28.66,5.3 4.2,0.3 9.47,0.8 13.58,1.1 5.14,0 11.5,0 14.73,0.1 0.02,0 0.04,0 0.07,0 -33.75,-1.5 -7.78,-0.5 3.05,-1 1.74,-0.6 3.55,-1 5.39,-1.5 -2.28,-174.8 -4.56,-349.5 -6.83,-524.3 -0.41,-31.4 -2.81,-61.3 -17.87,-87.9 -62.62,48.7 -124.03,99.2 -186.11,148.5 -67.47,53.6 -134.93,107.2 -202.39,160.8 z m -672.45,543.1 c -342.96,272.5 -685.91,544.9 -1028.87,817.3 -17.1,13.6 -34.2,27.1 -51.3,40.7 54.79,2.3 109.22,9.2 162.3,21.3 140.9,32.1 240.23,116.8 296.38,248.7 16.23,38.2 29.23,79.1 37.72,120.6 181.41,-19.1 369.57,-7.1 540.88,30.6 284.95,62.7 513.45,244.8 669.31,487.2 11.36,17.6 22.5,35.6 33.29,53.9 18.06,-4.7 36.19,-8.9 54.41,-12.3 127.61,-24 274.08,-24.7 398.59,23.5 -1.87,-142.8 -3.73,-285.7 -5.6,-428.6 -5.72,-437.9 -11.44,-875.9 -17.16,-1313.8 -0.9,-68.7 -1.8,-137.4 -2.69,-206.1 -145.57,3.2 -288.72,-30 -419.24,-96.1 -75.33,-38.1 -152.28,-86.4 -210.64,-150.2 -152.46,121.1 -304.92,242.2 -457.38,363.3 z m -1583.6,1678.2 c -121.8,256.5 -243.61,513.1 -365.41,769.6 -148.61,313.1 -297.22,626.1 -445.84,939.1 -162.77,342.9 -325.55,685.8 -488.33,1028.6 -164.31,346.1 -328.61,692.2 -492.92,1038.3 -153.19,322.6 -306.37,645.3 -459.56,968 -129.43,272.6 -258.87,545.2 -388.3,817.9 -93.03,195.9 -186.06,391.9 -279.09,587.8 -41.96,88.4 -83.5,177 -125.86,265.2 145.83,69.2 291.66,138.5 437.49,207.7 7.45,-15.7 14.91,-31.4 22.37,-47.1 82.08,-172.9 164.16,-345.8 246.24,-518.7 120.8,-254.5 241.59,-508.9 362.39,-763.4 148,-311.7 296,-623.5 443.99,-935.2 162.14,-341.5 324.28,-683.1 486.41,-1024.6 163.67,-344.7 327.33,-689.5 491,-1034.2 151.96,-320.1 303.93,-640.2 455.89,-960.3 129.02,-271.8 258.04,-543.5 387.06,-815.3 92.77,-195.4 185.54,-390.8 278.3,-586.2 43.8,-92.3 84.51,-186.9 131.73,-277.5 2,-3.8 3.73,-7.9 5.6,-11.8 0,0 0.01,0 0.02,0 -6.23,-110.9 -45.67,-232.6 -122.9,-313.8 -29.14,-30.7 -63.69,-56.3 -104.42,-69.3 -1.64,-0.5 -5.6,-1.5 -9.42,-2.3 6.5,-0.5 9.36,-3.8 -2.74,-1.7 -0.01,0 -0.06,0 -0.07,0 7.98,-1.7 5.41,-1.3 -0.22,-0.2 -2.44,-1.7 -18.81,-6.4 -7.09,-0.2 0.83,0.5 1.69,0.8 2.55,1.1 -6.95,1.4 -15.09,3 -15.62,3.1 14.9,-2.8 -7.68,1.8 -12.53,3 -9.58,2.4 -19.13,4.9 -28.61,7.7 -18.23,5.3 -18.81,5.3 -32.12,10.5 -16.56,13.2 -33.12,26.3 -49.67,39.5 -24.42,51.4 -48.85,102.8 -73.27,154.3 -82.35,173.4 -164.7,346.9 -247.05,520.4 z m -3581.37,7551.4 c -18,37.9 -36.01,75.8 -54.02,113.8 281.71,133.7 563.42,267.5 845.12,401.2 478.75,227.3 957.5,454.6 1436.24,681.8 44.32,21.1 88.64,42.1 132.95,63.1 153.1,-322.4 306.19,-644.9 459.28,-967.4 18.01,-37.9 36.02,-75.8 54.03,-113.8 -281.71,-133.7 -563.42,-267.4 -845.13,-401.2 -478.74,-227.3 -957.49,-454.6 -1436.24,-681.8 -44.31,-21.1 -88.63,-42.1 -132.95,-63.1 -153.09,322.4 -306.18,644.9 -459.28,967.4 z m -495.59,1045.4 c -32.82,69.1 -62.76,138.7 -76.13,214.7 -25.43,144.6 -9.01,294.5 51.87,428.3 59.05,129.8 157.82,244.6 278.56,313 37.37,21.2 76.95,38.8 115.75,57.2 349.19,165.8 698.38,331.6 1047.56,497.3 51.77,24.6 103.54,49.2 155.31,73.8 9.33,4.4 18.63,8.9 28.02,13.2 31.91,14.7 44.24,19.2 85.34,30.7 10.14,2.9 20.33,5.5 30.59,7.9 1.51,0.2 3.17,0.4 5.13,0.7 19.63,2.9 39.82,4.7 59.34,8.1 8.45,-0.2 16.99,0.6 25.47,0.6 8.78,0.1 17.56,-0.1 26.35,-0.2 1.82,0 6.94,-0.3 11.51,-0.5 8.1,-1.1 34.19,-3.9 39.11,-4.6 8.62,-1.3 17.2,-2.8 25.79,-4.3 1.97,-0.4 3.36,-0.6 4.45,-0.8 3.29,-0.8 6.61,-1.6 9.89,-2.4 72.51,-19.5 109.54,-33.5 178.67,-75.8 105.2,-64.4 196.62,-173.6 253.61,-291.3 142.02,-293.3 279.65,-588.8 419.36,-883.3 -281.52,-133.6 -563.04,-267.3 -844.57,-400.9 -478.74,-227.3 -957.49,-454.6 -1436.24,-681.9 -44.12,-20.9 -88.25,-41.9 -132.37,-62.8 -120.79,254.4 -241.58,508.8 -362.37,763.3 z m 1712.65,1635.5 c -5.03,-0.9 -8.86,-1.4 0,0 z M 7677.04,7147.1 c -1.34,-0.1 -3.52,-0.3 -7.06,-0.6 -7.74,-0.6 -15.49,-1.1 -23.23,-1.7 -6.29,-0.5 -9.32,-0.8 -10.68,-1 -1.7,0 -4.4,0 -8.91,-0.1 -15.91,-0.1 -31.81,0.1 -47.72,0.2 -7.82,0.5 -15.65,0.9 -23.47,1.4 -13.68,0.9 -27.35,2.2 -41,3.6 -4.51,0.7 -23.79,3 -29.39,3.9 -11.61,1.7 -23.21,3.5 -34.78,5.6 -4.11,0.7 -18.03,3.4 -24.54,4.6 -3.99,0.9 -8.18,1.8 -9.85,2.2 -0.45,0.1 -0.88,0.2 -1.33,0.3 -27.07,57.1 -54.15,114.1 -81.22,171.1 -82.08,172.9 -164.17,345.8 -246.25,518.7 -120.79,254.5 -241.59,508.9 -362.39,763.4 -147.99,311.7 -295.99,623.4 -443.99,935.2 -162.14,341.5 -324.27,683 -486.41,1024.6 -163.66,344.7 -327.33,689.4 -491,1034.2 -151.96,320.1 -303.92,640.2 -455.89,960.3 -129.02,271.8 -258.04,543.5 -387.06,815.3 -92.76,195.4 -185.53,390.8 -278.3,586.2 -41.77,88 -80.8,178.1 -125.28,264.9 53.27,25.2 106.54,50.5 159.81,75.8 294.73,140 589.47,279.9 884.2,419.8 7.46,-15.7 14.91,-31.4 22.37,-47.1 82.08,-172.9 164.16,-345.8 246.24,-518.7 120.8,-254.5 241.6,-508.9 362.39,-763.4 148,-311.7 296,-623.4 443.99,-935.2 162.14,-341.5 324.28,-683 486.42,-1024.6 163.66,-344.7 327.33,-689.5 490.99,-1034.2 151.97,-320.1 303.93,-640.2 455.89,-960.3 129.02,-271.8 258.04,-543.5 387.06,-815.3 92.77,-195.4 185.54,-390.8 278.31,-586.2 43.77,-92.2 84.26,-187.1 131.72,-277.5 2.02,-3.8 3.74,-7.9 5.6,-11.8 h 0.01 c -52.26,-124.7 -138.57,-244.2 -231.87,-343.1 -86.46,-91.5 -187.07,-168.8 -303.43,-218.2 -62.67,-26.7 -128.89,-43.7 -196.45,-51.9 -1.38,-0.2 -2.48,-0.3 -3.5,-0.4 z m -1570.97,7247.3 c 136.31,-287.2 272.62,-574.3 408.92,-861.4 164.52,-346.6 329.04,-693.1 493.56,-1039.7 176.64,-372.1 353.27,-744.1 529.91,-1116.2 172.45,-363.3 344.9,-726.5 517.35,-1089.8 154.09,-324.6 308.17,-649.1 462.25,-973.7 119.38,-251.5 238.75,-502.9 358.13,-754.4 68.88,-145.1 137.76,-290.2 206.65,-435.3 9.04,-19.1 30.23,-47.6 32.72,-68.9 0.79,-6.9 -3.52,-16.4 -5.32,-23 -10.65,-38.7 -24.87,-76.7 -41.98,-113 -24.69,-52.5 -57.43,-102.1 -97.72,-143.9 -20.67,-21.4 -43.69,-42 -69.19,-57.5 -11.43,-7 -23.72,-13 -36.11,-18.3 -6.42,1.8 -13.13,3.7 -17.28,5 -20.9,6.9 -45.69,18 -67.1,28.5 -18.07,8.9 -35.85,18.6 -53.02,29.1 -2.14,1.5 -10.25,6.8 -13.6,9.2 -28.51,60.1 -57.03,120.2 -85.55,180.2 -82.08,172.9 -164.16,345.8 -246.24,518.7 -120.8,254.5 -241.6,508.9 -362.4,763.4 -147.99,311.7 -295.99,623.4 -443.99,935.2 -162.13,341.5 -324.27,683 -486.41,1024.6 -163.66,344.7 -327.33,689.5 -490.99,1034.2 -151.97,320.1 -303.93,640.2 -455.9,960.3 -129.01,271.8 -258.03,543.5 -387.05,815.3 -92.77,195.4 -185.54,390.8 -278.31,586.2 -41.75,88 -80.58,178.3 -125.25,264.9 100.39,47.6 200.79,95.3 301.19,143 45.32,21.5 90.65,43 135.97,64.5 11.98,-25.2 23.95,-50.4 35.92,-75.7 93.62,-197.1 187.23,-394.3 280.84,-591.5 z M 20057.3,4531.5 c -195.9,312.3 -543.6,445.9 -896.5,484.2 -427.9,46.4 -841.3,-30.3 -1236.5,-194 -416.2,-172.4 -804.8,-419.4 -1239.5,-545.7 -89.5,-26 -180.5,-46.4 -272.9,-59.1 -33.8,-4.6 -70.8,-8.3 -101.7,-10 -48.9,-2.8 -59.1,-2.9 -104.7,0.3 -162.5,11.2 -335.8,67 -478,156.5 -180.7,113.8 -303.7,280.1 -378.2,469 56.6,30.1 112.3,62.7 166.8,98 369,239.4 671.7,575.2 903.5,946.9 131.2,210.2 255.1,445.9 256.2,699.8 0.8,196.3 -91.7,402.3 -260.7,509.9 -92.2,58.8 -201.7,76.9 -309.3,81.5 -122.5,5.3 -252,-0.2 -366.8,-47.4 -173.1,-71.1 -293.6,-235.7 -381.4,-394.2 -112.7,-203.3 -189.1,-429.7 -262.3,-649.5 -81.5,-245 -145.1,-500.6 -143.2,-760.4 1.3,-165.6 31,-329.4 89.9,-478.6 -140.6,-74.7 -289.2,-134.8 -443.4,-174.4 -82.9,-21.3 -167.5,-36.3 -252.8,-43.3 -72.9,-6.1 -121.9,-5.5 -202.4,3 -362.2,38.2 -718.5,209.4 -963.8,480.1 -127.4,140.6 -218.2,310.4 -271.4,491.9 128.9,78.1 234.5,191.2 310,323.2 54.4,95.3 95.6,201.5 116.4,309.4 13.1,68.1 1.4,134.5 -43.2,188.7 -44.4,53.9 -107.3,80.5 -174.6,93.1 -111.1,21 -240.1,23.2 -350,-5.6 -180.4,-47.2 -202.6,-241.1 -216.2,-401.2 -14.6,-171.4 3.5,-341.7 51,-502.3 -56.2,-32.4 -116.5,-57.3 -179.4,-74 -31.3,-8.3 -64.1,-13.8 -93.4,-17.2 5.6,0.7 18.4,0.7 -1.8,-0.1 v 0 0 c -1,-0.1 -2.1,-0.1 -3.2,-0.1 -0.2,0 -0.4,0 -0.6,0.1 -0.9,0.2 -1.7,0.4 -2.5,0.5 -7.4,0.7 -16.2,1.5 -18,1.7 -89,11.6 -176.5,42.6 -255.9,88.4 28,29.1 55.3,59.2 81.8,90.3 139.5,163.5 281.8,369 228.6,595.3 -21,89.1 -72.6,175.2 -152.1,223.6 -110,66.9 -264.5,63.8 -387.7,52.8 -218.3,-19.6 -394.9,-150 -412.5,-380.6 -15.1,-197.8 83.8,-390.7 233.1,-516.1 31.1,-26.1 64.2,-49 98.7,-69.4 -29.3,-29.3 -59,-57.6 -88.7,-84.9 -126.7,-116.2 -267.4,-216.6 -417.6,-300.3 -298.8,-166.6 -630.7,-264.7 -967.2,-319.7 -351.15,-57.3 -685.3,-68 -1027.95,-65.9 -12.07,0.1 -24.04,0.1 -35.94,0.3 86.99,25.9 158.3,81.1 179.58,171.4 7.6,32.2 4.85,68.3 5.28,101.2 0.79,60.4 1.58,120.9 2.36,181.3 1.42,108.5 2.83,216.9 4.24,325.4 3.62,277.1 7.24,554.3 10.86,831.5 5.72,437.9 11.44,875.9 17.16,1313.8 1.33,101.3 2.65,202.5 3.97,303.7 0.12,9.2 -3.09,17.4 -8.71,24.8 -9.97,24.9 -27.11,50.7 -37.57,72.7 -31.03,65.4 -62.06,130.8 -93.09,196.1 -103.82,218.7 -207.65,437.4 -311.48,656.2 -145.63,306.7 -291.25,613.5 -436.87,920.2 -171.03,360.3 -342.05,720.5 -513.08,1080.8 -180.03,379.2 -360.06,758.4 -540.09,1137.7 -172.64,363.6 -345.29,727.3 -517.93,1091 -148.87,313.6 -297.73,627.1 -446.59,940.7 -108.69,229 -217.38,457.9 -326.07,686.9 -52.12,109.8 -103.78,219.8 -156.36,329.3 -2.3,4.8 -4.55,9.6 -6.82,14.4 -0.24,0.5 -0.62,0.9 -0.88,1.4 -0.18,5.7 -1.61,11.6 -4.6,17.9 -172.96,364.4 -345.92,728.7 -518.89,1093 -23.76,50.1 -47.53,100.1 -71.29,150.2 -0.83,2.5 -1.67,5 -2.9,7.6 -143,301.2 -286,602.4 -429,903.6 -117.33,247.2 -335.45,426.5 -603.42,488.6 -184.31,42.8 -380.38,40.4 -561.06,-18.9 -61.25,-20.1 -119.1,-47.3 -177.13,-74.9 -356.84,-169.4 -713.68,-338.8 -1070.53,-508.2 -150.02,-71.2 -301.37,-136.9 -417.72,-260.9 -223.12,-237.8 -289.61,-584.3 -160.02,-885.4 58.9,-136.8 127.67,-270.1 191.55,-404.6 81.95,-172.6 163.9,-345.2 245.85,-517.9 4.91,-10.3 9.82,-20.7 14.74,-31 1.07,-2.3 2.43,-4.4 3.8,-6.5 171.7,-361.7 343.39,-723.4 515.08,-1085 24.73,-52.1 49.46,-104.2 74.19,-156.3 2.67,-5.6 6.42,-10.8 11.05,-15.5 30.52,-64.2 61.04,-128.5 91.57,-192.8 96.55,-203.4 193.11,-406.8 289.66,-610.2 140.69,-296.3 281.37,-592.6 422.05,-889 168.42,-354.7 336.84,-709.5 505.26,-1064.2 179.76,-378.6 359.52,-757.3 539.28,-1135.9 175.36,-369.4 350.72,-738.8 526.09,-1108.1 153.14,-322.6 306.27,-645.1 459.41,-967.7 115.23,-242.7 230.46,-485.4 345.69,-728.2 60.93,-128.3 121.85,-256.6 182.78,-384.9 4.75,-10 8.82,-20.9 14.45,-30.5 0.59,-1 1.37,-1.8 2.01,-2.8 -1.79,-13.3 3.75,-27.5 21,-41.2 217.06,-172.4 434.12,-344.8 651.17,-517.2 342.96,-272.4 685.91,-544.8 1028.87,-817.2 79.28,-63 158.57,-126 237.85,-188.9 12.11,-9.7 25.79,-17.3 40.37,-23.3 134.76,-108.1 267.82,-219.3 406.25,-322.5 26.08,-19.4 58.09,-35 93.32,-46.5 -70.54,2 -142.5,4.4 -219.16,7.1 -180.17,6.5 -360.3,14.2 -540.49,20.3 -174.57,5.8 -349.25,10.2 -523.92,10.4 -17.05,0 -153.46,2.8 -153.46,-24.2 0,-26.1 144.86,-24.1 153.46,-24.2 44.64,0 89.28,-0.3 133.93,-0.9 23.97,-0.3 47.94,-0.7 71.91,-1.1 1.51,0 8.97,-0.2 13.27,-0.3 14.28,-0.3 28.56,-0.6 42.83,-1 93.4,-2.3 186.77,-5.4 280.13,-8.8 198.58,-7.3 397.11,-15.8 595.73,-22 425.47,-13.2 852.07,-16.6 1276.57,19.2 684.5,57.8 1385.2,233.5 1896.4,701.5 61.9,-17.1 125.5,-28.8 189.2,-35.8 162.9,-18 336.2,-16.7 499,19.9 81.2,-207.1 213.6,-393.7 390.7,-539.2 340,-279.5 782.6,-379.4 1214.3,-383 295.3,-2.5 583.1,46.6 853.3,149.4 101.4,-189 256.4,-345.4 467.9,-438.5 204.8,-90.1 430.1,-118.6 652,-122.5 229.1,-3.9 459.2,21.3 680.9,79.8 476.8,125.9 897.6,399.9 1351.7,583.8 190.3,77.1 404.5,146 602.2,157.6 65.8,3.9 122.9,1.8 214,-13.8 91.8,-15.7 182.5,-42.6 267.6,-80.4 170.5,-75.9 316.8,-194.3 416.4,-353 20.6,-33 120.4,-24.2 153.4,-24.2 10.9,0 159.9,13.8 153.5,24.2"
         style="fill:#141415;fill-opacity:1;fill-rule:nonzero;stroke:none"
         id="path28" />
    </g>
  </g>
</svg>
